<svg width="131" height="44" viewBox="0 0 131 44" fill="none" xmlns="http://www.w3.org/2000/svg">
<g clip-path="url(#clip0_15_518)">
<path d="M1.12973 38.7274C1.14171 38.6756 1.19361 38.6396 1.24552 38.6396H1.34932C1.39324 38.6396 1.44514 38.6716 1.45711 38.7115L2.72272 42.2307H2.75466L4.0003 38.7115C4.01228 38.6716 4.06418 38.6396 4.1081 38.6396H4.2119C4.2638 38.6396 4.3157 38.6795 4.32768 38.7274L5.15012 43.0207C5.17009 43.1085 5.13016 43.1723 5.03434 43.1723H4.77883C4.72693 43.1723 4.67502 43.1284 4.66305 43.0845L4.09612 39.7968H4.07216L2.89839 43.1683C2.88641 43.2082 2.82652 43.2401 2.79059 43.2401H2.67481C2.63489 43.2401 2.57899 43.2082 2.56701 43.1683L1.37727 39.7968H1.35331L0.798362 43.0845C0.790377 43.1284 0.734483 43.1723 0.682581 43.1723H0.427064C0.331246 43.1723 0.291321 43.1085 0.311284 43.0207L1.13772 38.7274H1.12973Z" fill="white"/>
<path d="M7.46582 38.8228C7.46582 38.759 7.51772 38.7031 7.58559 38.7031H10.1048C10.1767 38.7031 10.2246 38.759 10.2246 38.8228V39.0064C10.2246 39.0702 10.1727 39.1261 10.1048 39.1261H7.95689V40.6862H9.78942C9.8533 40.6862 9.90919 40.742 9.90919 40.8059V40.9894C9.90919 41.0612 9.8533 41.1091 9.78942 41.1091H7.95689V42.737H10.1048C10.1767 42.737 10.2246 42.7929 10.2246 42.8567V43.0403C10.2246 43.1041 10.1727 43.16 10.1048 43.16H7.58559C7.51373 43.16 7.46582 43.1041 7.46582 43.0403V38.8109V38.8228Z" fill="white"/>
<path d="M12.5201 38.8228C12.5201 38.759 12.572 38.7031 12.6359 38.7031H14.0652C15.2989 38.7031 16.309 39.7046 16.309 40.9335C16.309 42.1625 15.2989 43.1759 14.0652 43.1759H12.6359C12.572 43.1759 12.5201 43.1201 12.5201 43.0562V38.8268V38.8228ZM14.0093 42.733C15.0553 42.733 15.79 41.9869 15.79 40.9335C15.79 39.8802 15.0553 39.138 14.0093 39.138H13.0072V42.733H14.0093Z" fill="white"/>
<path d="M18.6327 38.8228C18.6327 38.759 18.6886 38.7031 18.7525 38.7031H19.008C19.0719 38.7031 19.1278 38.759 19.1278 38.8228V43.0522C19.1278 43.1161 19.0719 43.1719 19.008 43.1719H18.7525C18.6886 43.1719 18.6327 43.1161 18.6327 43.0522V38.8228Z" fill="white"/>
<path d="M23.755 38.6392C24.4018 38.6392 24.8689 38.8627 25.3001 39.2338C25.352 39.2856 25.356 39.3614 25.3081 39.4133L25.1364 39.5849C25.0845 39.6487 25.0326 39.6407 24.9687 39.5769C24.6373 39.2896 24.2141 39.0981 23.747 39.0981C22.7369 39.0981 21.9624 39.948 21.9624 40.9375C21.9624 41.927 22.7369 42.7689 23.747 42.7689C24.302 42.7689 24.6294 42.5774 24.9687 42.2901C25.0326 42.2382 25.0845 42.2462 25.1364 42.2981L25.2841 42.4457C25.336 42.4856 25.324 42.5734 25.2761 42.6173C24.8529 43.0003 24.3259 43.2357 23.755 43.2357C22.4774 43.2357 21.4474 42.2223 21.4474 40.9415C21.4474 39.6607 22.4774 38.6353 23.755 38.6353V38.6392Z" fill="white"/>
<path d="M27.6157 38.8228C27.6157 38.759 27.6716 38.7031 27.7355 38.7031H27.991C28.0549 38.7031 28.1108 38.759 28.1108 38.8228V43.0522C28.1108 43.1161 28.0549 43.1719 27.991 43.1719H27.7355C27.6716 43.1719 27.6157 43.1161 27.6157 43.0522V38.8228Z" fill="white"/>
<path d="M30.7138 38.7554C30.7138 38.6915 30.7697 38.6396 30.8336 38.6396H30.9294C30.9733 38.6396 31.0053 38.6516 31.0332 38.6915L33.8758 42.2307H33.8878V38.8272C33.8878 38.7633 33.9397 38.7075 34.0076 38.7075H34.2312C34.2951 38.7075 34.3509 38.7633 34.3509 38.8272V43.1244C34.3509 43.1883 34.2951 43.2401 34.2312 43.2401H34.1793C34.1354 43.2401 34.1034 43.2282 34.0755 43.1883L31.1809 39.5813H31.173V43.0566C31.173 43.1204 31.1211 43.1763 31.0532 43.1763H30.8296C30.7657 43.1763 30.7098 43.1204 30.7098 43.0566V38.7593L30.7138 38.7554Z" fill="white"/>
<path d="M36.3829 43.0087L38.3272 38.7115C38.3471 38.6716 38.3791 38.6396 38.435 38.6396H38.4989C38.5547 38.6396 38.5867 38.6716 38.6066 38.7115L40.535 43.0087C40.5749 43.0925 40.523 43.1763 40.4272 43.1763H40.1717C40.1158 43.1763 40.0759 43.1364 40.0639 43.1045L39.5928 42.0511H37.3251L36.858 43.1045C36.846 43.1364 36.8061 43.1763 36.7502 43.1763H36.4946C36.3988 43.1763 36.3469 43.0925 36.3868 43.0087H36.3829ZM39.4171 41.6561C39.1057 40.9578 38.7983 40.2556 38.4829 39.5613H38.431L37.4967 41.6561H39.4131H39.4171Z" fill="white"/>
<path d="M45.4817 38.8228C45.4817 38.759 45.5336 38.7031 45.6015 38.7031H48.1207C48.1926 38.7031 48.2405 38.759 48.2405 38.8228V39.0064C48.2405 39.0702 48.1886 39.1261 48.1207 39.1261H45.9728V40.6862H47.8053C47.8692 40.6862 47.9251 40.742 47.9251 40.8059V40.9894C47.9251 41.0612 47.8692 41.1091 47.8053 41.1091H45.9728V42.737H48.1207C48.1926 42.737 48.2405 42.7929 48.2405 42.8567V43.0403C48.2405 43.1041 48.1886 43.16 48.1207 43.16H45.6015C45.5296 43.16 45.4817 43.1041 45.4817 43.0403V38.8109V38.8228Z" fill="white"/>
<path d="M50.2529 42.5016L50.3487 42.3819C50.4126 42.2981 50.4645 42.2662 50.5524 42.342C50.5963 42.3819 51.0833 42.8088 51.6503 42.8088C52.1693 42.8088 52.5047 42.4816 52.5047 42.0786C52.5047 41.6397 52.1214 41.3844 51.3868 41.0692C50.6841 40.7699 50.2609 40.5026 50.2609 39.7724C50.2609 39.3375 50.6043 38.6353 51.6223 38.6353C52.2491 38.6353 52.7163 38.9624 52.7163 38.9624C52.7562 38.9824 52.8241 39.0582 52.7562 39.1779L52.6923 39.2856C52.6404 39.3734 52.5725 39.3734 52.4687 39.3175C52.2012 39.1579 51.9777 39.0622 51.6183 39.0622C50.9396 39.0622 50.736 39.4971 50.736 39.7644C50.736 40.2193 51.0634 40.4148 51.5984 40.6382C52.4607 40.9894 53.0157 41.3165 53.0157 42.0547C53.0157 42.721 52.3849 43.2317 51.6343 43.2317C50.8837 43.2317 50.3687 42.7928 50.2849 42.713C50.233 42.6692 50.1571 42.6093 50.2449 42.4976L50.2529 42.5016Z" fill="white"/>
<path d="M56.0579 39.1305H54.944C54.8721 39.1305 54.8242 39.0746 54.8242 39.0108V38.8272C54.8242 38.7634 54.8761 38.7075 54.944 38.7075H57.6549C57.7267 38.7075 57.7746 38.7634 57.7746 38.8272V39.0108C57.7746 39.0746 57.7227 39.1305 57.6549 39.1305H56.541V43.0526C56.541 43.1165 56.4851 43.1723 56.4212 43.1723H56.1777C56.1138 43.1723 56.0579 43.1165 56.0579 43.0526V39.1305Z" fill="white"/>
<path d="M59.9303 38.8228C59.9303 38.7589 59.9822 38.7031 60.0501 38.7031H62.5693C62.6412 38.7031 62.6891 38.7589 62.6891 38.8228V39.0063C62.6891 39.0702 62.6372 39.126 62.5693 39.126H60.4214V40.6861H62.2539C62.3178 40.6861 62.3737 40.742 62.3737 40.8058V40.9894C62.3737 41.0612 62.3178 41.1091 62.2539 41.1091H60.4214V42.737H62.5693C62.6412 42.737 62.6891 42.7928 62.6891 42.8567V43.0402C62.6891 43.1041 62.6372 43.1599 62.5693 43.1599H60.0501C59.9782 43.1599 59.9303 43.1041 59.9303 43.0402V38.8108V38.8228ZM60.7288 38.0328C60.7048 37.9809 60.7288 37.929 60.7687 37.9131L61.7269 37.3784C61.7668 37.3545 61.8626 37.3385 61.8946 37.3983L62.0104 37.6298C62.0343 37.6816 62.0223 37.7455 61.9704 37.7654L60.9404 38.1924C60.8526 38.2323 60.8206 38.2323 60.7927 38.1804L60.7288 38.0407V38.0328Z" fill="white"/>
<path d="M65.7711 39.1305H64.6573C64.5854 39.1305 64.5375 39.0746 64.5375 39.0108V38.8272C64.5375 38.7634 64.5894 38.7075 64.6573 38.7075H67.3681C67.44 38.7075 67.4879 38.7634 67.4879 38.8272V39.0108C67.4879 39.0746 67.436 39.1305 67.3681 39.1305H66.2542V43.0526C66.2542 43.1165 66.1983 43.1723 66.1345 43.1723H65.8909C65.827 43.1723 65.7711 43.1165 65.7711 43.0526V39.1305Z" fill="white"/>
<path d="M69.6401 38.8228C69.6401 38.759 69.696 38.7031 69.7599 38.7031H70.0154C70.0793 38.7031 70.1352 38.759 70.1352 38.8228V43.0522C70.1352 43.1161 70.0793 43.1719 70.0154 43.1719H69.7599C69.696 43.1719 69.6401 43.1161 69.6401 43.0522V38.8228Z" fill="white"/>
<path d="M74.7622 38.6392C75.409 38.6392 75.8761 38.8627 76.3073 39.2338C76.3592 39.2856 76.3632 39.3614 76.3153 39.4133L76.1436 39.5849C76.0917 39.6487 76.0398 39.6407 75.9759 39.5769C75.6446 39.2896 75.2214 39.0981 74.7542 39.0981C73.7442 39.0981 72.9696 39.948 72.9696 40.9375C72.9696 41.927 73.7442 42.7689 74.7542 42.7689C75.3092 42.7689 75.6366 42.5774 75.9759 42.2901C76.0398 42.2382 76.0917 42.2462 76.1436 42.2981L76.2913 42.4457C76.3432 42.4856 76.3313 42.5734 76.2833 42.6173C75.8601 43.0003 75.3331 43.2357 74.7622 43.2357C73.4846 43.2357 72.4546 42.2223 72.4546 40.9415C72.4546 39.6607 73.4846 38.6353 74.7622 38.6353V38.6392Z" fill="white"/>
<path d="M78.052 43.0087L79.9964 38.7115C80.0163 38.6716 80.0483 38.6396 80.1042 38.6396H80.168C80.2239 38.6396 80.2559 38.6716 80.2758 38.7115L82.2042 43.0087C82.2441 43.0925 82.1922 43.1763 82.0964 43.1763H81.8409C81.785 43.1763 81.7451 43.1364 81.7331 43.1045L81.262 42.0511H78.9943L78.5271 43.1045C78.5152 43.1364 78.4752 43.1763 78.4194 43.1763H78.1638C78.068 43.1763 78.0161 43.0925 78.056 43.0087H78.052ZM81.0863 41.6561C80.7749 40.9578 80.4675 40.2556 80.1521 39.5613H80.1002L79.1659 41.6561H81.0823H81.0863Z" fill="white"/>
<path d="M52.6243 27.144H44.6274C42.0922 27.144 40.0281 25.0812 40.0281 22.5515V0H36.6345V22.5515C36.6345 26.9565 40.2197 30.5395 44.6274 30.5395H52.6243V27.148V27.144Z" fill="white"/>
<path d="M72.0079 27.144H64.0111C61.4759 27.144 59.4118 25.0812 59.4118 22.5515V0H56.0182V22.5515C56.0182 26.9565 59.6034 30.5395 64.0111 30.5395H72.0079V27.148V27.144Z" fill="white"/>
<path d="M78.751 17.4922V20.4209V30.5395H82.0927L82.0847 20.4209V17.4922C82.0927 15.6448 82.6436 13.8653 83.6737 12.3491L92.0778 0H88.0295L80.9389 10.4099C80.7512 10.6852 80.5796 10.9645 80.4159 11.2518C80.2522 10.9645 80.0805 10.6852 79.8929 10.4099L72.8063 0H68.7579L77.166 12.3491C78.2001 13.8653 78.747 15.6448 78.751 17.4922Z" fill="white"/>
<path d="M26.2542 0H22.8606V30.5395H26.2542V0Z" fill="white"/>
<path d="M15.9897 27.144H7.99287C5.45767 27.144 3.39358 25.0812 3.39358 22.5515V0H0V22.5515C0 26.9565 3.58521 30.5395 7.99287 30.5395H15.9897V27.148V27.144Z" fill="white"/>
<path d="M95.6787 21.7615C95.6907 21.7136 95.7386 21.6777 95.7865 21.6777H95.9182C95.9781 21.6777 96.0141 21.7017 96.038 21.7615L98.5053 29.1111H98.5293L101.009 21.7615C101.033 21.7017 101.068 21.6777 101.128 21.6777H101.26C101.308 21.6777 101.356 21.7136 101.368 21.7615L103.069 30.0208C103.093 30.1405 103.045 30.1765 102.937 30.1765H102.649C102.578 30.1765 102.518 30.1166 102.506 30.0448L101.152 23.0303H101.128L98.709 30.2004C98.685 30.2722 98.6131 30.2962 98.5413 30.2962H98.4934C98.4335 30.2962 98.3616 30.2842 98.3377 30.2004L95.9182 23.0303H95.8943L94.5408 30.0448C94.5289 30.1166 94.469 30.1765 94.3971 30.1765H94.1097C94.0019 30.1765 93.954 30.1405 93.9779 30.0208L95.6787 21.7615Z" fill="white"/>
<path d="M110.431 21.9535C110.431 21.8697 110.503 21.7979 110.586 21.7979H115.389C115.473 21.7979 115.545 21.8697 115.545 21.9535V22.157C115.545 22.2407 115.473 22.3126 115.389 22.3126H111.006V25.6163H114.802C114.886 25.6163 114.958 25.6881 114.958 25.7719V25.9754C114.958 26.0592 114.886 26.131 114.802 26.131H111.006V29.6741H115.389C115.473 29.6741 115.545 29.7459 115.545 29.8297V30.0213C115.545 30.105 115.473 30.1769 115.389 30.1769H110.586C110.503 30.1769 110.431 30.105 110.431 30.0213V21.9535Z" fill="white"/>
<path d="M123.131 21.9535C123.131 21.8697 123.203 21.7979 123.275 21.7979H125.814C128.137 21.7979 130.03 23.6771 130.03 25.9754C130.03 28.2736 128.217 30.1769 125.894 30.1769H123.354C123.283 30.1769 123.211 30.105 123.211 30.0213L123.131 21.9535ZM125.798 29.6622C127.93 29.6622 129.431 28.0701 129.431 25.9754C129.431 23.8806 127.862 22.3126 125.718 22.3126H123.694L123.774 29.6622H125.798Z" fill="white"/>
<path d="M88.5284 21.7979H88.1292V43.1723H88.5284V21.7979Z" fill="white"/>
</g>
<defs>
<clipPath id="clip0_15_518">
<rect width="130.03" height="43.2357" fill="white"/>
</clipPath>
</defs>
</svg>
