<svg id="Layer_1" data-name="Layer 1" xmlns="http://www.w3.org/2000/svg" viewBox="0 0 332.17 265.73"><defs><style>.cls-1{fill:#fff;}</style></defs><g id="Group_1726" data-name="Group 1726"><g id="Group_1718" data-name="Group 1718"><path id="Path_1274" data-name="Path 1274" class="cls-1" d="M15.8,139.35a1.33,1.33,0,0,0,1.29,1.3H52.23a1.17,1.17,0,0,0,1.29-1v-1.87c0-.7-.1-1.29-1.29-1.29H20.48V72.27a1.31,1.31,0,0,0-1.2-1.3H17.09a1.32,1.32,0,0,0-1.29,1.3Zm51,0a1.34,1.34,0,0,0,1.3,1.3h2.09a1.34,1.34,0,0,0,1.39-1.28V72.27A1.32,1.32,0,0,0,70.25,71H68.06a1.33,1.33,0,0,0-1.3,1.3Zm26.68,0a1.32,1.32,0,0,0,1.29,1.3h35.14a1.16,1.16,0,0,0,1.28-1,.19.19,0,0,0,0-.08v-1.79c0-.7-.1-1.29-1.29-1.29H98.12V72.27a1.32,1.32,0,0,0-1.2-1.3H94.73a1.32,1.32,0,0,0-1.3,1.3Zm51,0a1.32,1.32,0,0,0,1.29,1.3h35.14a1.17,1.17,0,0,0,1.29-1v-1.87c0-.7-.1-1.29-1.29-1.29H149.08V72.27a1.31,1.31,0,0,0-1.2-1.3h-2.19a1.32,1.32,0,0,0-1.29,1.3Zm59.82,0c0,1.6,2.09,1.3,3.39,1.3a1.32,1.32,0,0,0,1.29-1.3V106.7l25.88-34.24c.6-.79.2-1.49-.79-1.49h-3a1.61,1.61,0,0,0-1.29.6l-23.1,31L183.92,71.57a1.64,1.64,0,0,0-1.3-.6h-3c-1,0-1.4.7-.8,1.49l25.38,34.34Z"/><path id="Path_1275" data-name="Path 1275" class="cls-1" d="M280,142.58a.31.31,0,0,0,.31-.31h0v-6.34a.31.31,0,0,0-.31-.31h-.47a.3.3,0,0,0-.3.3h0v5.41h-4.11v-4.63a.3.3,0,0,0-.3-.3h-.47a.32.32,0,0,0-.31.31v4.62h-3.92v-5.41a.31.31,0,0,0-.31-.31h-.47a.31.31,0,0,0-.31.3h0v6.34a.32.32,0,0,0,.31.31H280Zm-.84-9a5.24,5.24,0,0,0,1.31-3.39,3.25,3.25,0,0,0-3-3.48c-1.87,0-2.68,1.4-3.57,3.57-.57,1.36-1.07,2.18-2.21,2.18-.68,0-1.77-.52-1.77-2.22a3.82,3.82,0,0,1,.64-2.15c.14-.25.14-.43-.08-.56l-.27-.16a.38.38,0,0,0-.52,0l0,0a5.29,5.29,0,0,0-.81,2.76,3.06,3.06,0,0,0,2.67,3.41l.19,0c1.84,0,2.51-1.06,3.27-2.84s1.43-2.82,2.54-2.82a2,2,0,0,1,1.85,2,.49.49,0,0,0,0,.12,4.71,4.71,0,0,1-1.18,2.77c-.19.22-.11.35.1.51l.3.24c.3.23.44,0,.55-.09Zm.84-11.37a.31.31,0,0,0,.31-.3v-.61A.33.33,0,0,0,280,121h-9.89v-2.8a.3.3,0,0,0-.3-.31h-.47a.32.32,0,0,0-.31.31h0v6.83a.31.31,0,0,0,.31.31h.47a.32.32,0,0,0,.31-.3h0v-2.8Zm0-6.58a.31.31,0,0,0,.31-.3h0V109a.31.31,0,0,0-.31-.31h-.47a.31.31,0,0,0-.3.31h0v5.41h-4.11v-4.62a.3.3,0,0,0-.3-.31h-.47a.33.33,0,0,0-.31.31v4.62h-3.92V109a.32.32,0,0,0-.31-.31h-.47a.32.32,0,0,0-.31.31h0v6.35a.31.31,0,0,0,.31.3H280Zm-12.3-2.17c.13-.07.13-.15,0-.37l-1.08-2.6a.23.23,0,0,0-.31-.1h0l-.58.29c-.15.08-.12.32-.05.42l1.35,2.41a.23.23,0,0,0,.31.1h0Zm12.3-9.38a.32.32,0,0,0,.31-.3v-.61a.32.32,0,0,0-.31-.31h-9.89v-2.8a.3.3,0,0,0-.3-.31h-.47a.32.32,0,0,0-.31.3h0v6.83a.3.3,0,0,0,.31.3h.47a.31.31,0,0,0,.31-.3h0v-2.8Zm0-6.58a.33.33,0,0,0,.31-.31v-.64a.33.33,0,0,0-.31-.31H269.36a.33.33,0,0,0-.31.31v.65a.33.33,0,0,0,.31.31Zm-5.31-3.93a5.77,5.77,0,0,0,5.77-5.77v0A5.71,5.71,0,0,0,278.93,84a.3.3,0,0,0-.43,0h0l-.37.37a.27.27,0,0,0-.05.38.08.08,0,0,0,0,0,4.34,4.34,0,0,1,1.21,3.08,4.64,4.64,0,0,1-9.27,0,4.74,4.74,0,0,1,1.21-3.08c.16-.16.18-.29,0-.42l-.44-.44a.31.31,0,0,0-.44,0h0a5.68,5.68,0,0,0-1.49,3.9,5.8,5.8,0,0,0,5.79,5.81Zm5.62-11.2v-.64a.31.31,0,0,0-.18-.28l-2.66-1.17V74.6l2.66-1.19a.31.31,0,0,0,.18-.28v-.64a.28.28,0,0,0-.43-.27l-10.83,4.86a.26.26,0,0,0-.17.27v.16a.28.28,0,0,0,.17.28l10.84,4.89a.27.27,0,0,0,.38-.11A.29.29,0,0,0,280.33,82.41Zm-3.84-2.54-5.28-2.35v-.13c1.76-.79,3.54-1.56,5.28-2.35Z"/><path id="Path_1276" data-name="Path 1276" class="cls-1" d="M17.57,154.47v-3.95H20a1.9,1.9,0,0,1,2.1,1.65,2.81,2.81,0,0,1,0,.29,2,2,0,0,1-1.91,2H17.57Zm0,5.13v-4h2.77a2,2,0,0,1,2.18,1.91.15.15,0,0,1,0,.07,2,2,0,0,1-1.93,2.05h-3Zm4.39-4.67a3,3,0,0,0,1.57-2.56,3,3,0,0,0-3-3l-.24,0H16.67a.3.3,0,0,0-.31.3h0v10.67a.3.3,0,0,0,.31.3h3.78a3.13,3.13,0,0,0,3.39-2.86,1.93,1.93,0,0,0,0-.24A2.82,2.82,0,0,0,21.93,155ZM27,160.38a.29.29,0,0,0,.3.3h6.35a.29.29,0,0,0,.3-.3h0v-.47a.3.3,0,0,0-.3-.31H28.25v-4.1h4.62a.3.3,0,0,0,.3-.31h0v-.47a.31.31,0,0,0-.3-.3H28.25v-3.93h5.41a.29.29,0,0,0,.3-.3h0v-.46a.3.3,0,0,0-.3-.31H27.31a.29.29,0,0,0-.3.3h0Zm9.88,0a.3.3,0,0,0,.31.3h5.57a.3.3,0,0,0,.31-.3h0v-.47a.31.31,0,0,0-.31-.31H38.13v-9.88a.32.32,0,0,0-.3-.31H37.2a.31.31,0,0,0-.31.3h0Zm8.57,0a.3.3,0,0,0,.3.3h6.35a.3.3,0,0,0,.31-.3h0v-.47a.31.31,0,0,0-.31-.31H46.7v-4.1h4.62a.31.31,0,0,0,.31-.31h0v-.47a.32.32,0,0,0-.31-.3H46.7v-3.93h5.41a.29.29,0,0,0,.3-.3h0v-.46a.3.3,0,0,0-.3-.31H45.77a.31.31,0,0,0-.31.3h0Zm8.78,0a.3.3,0,0,0,.3.3h6.67a.29.29,0,0,0,.3-.3h0v-.52a.3.3,0,0,0-.3-.31H55.89l5.86-9.46a.58.58,0,0,0,.08-.31v-.05a.3.3,0,0,0-.3-.3H55a.31.31,0,0,0-.31.3v.52a.31.31,0,0,0,.31.3h5.07v.05l-5.77,9.35a.84.84,0,0,0-.08.31Zm9.06.3h.64a.3.3,0,0,0,.28-.17l1.17-2.66h5.72l1.19,2.66a.3.3,0,0,0,.27.17h.65a.28.28,0,0,0,.31-.25.33.33,0,0,0,0-.17l-4.86-10.83a.31.31,0,0,0-.28-.18h-.16a.28.28,0,0,0-.27.18L63,160.26a.28.28,0,0,0,.11.39.22.22,0,0,0,.16,0Zm2.54-3.83,2.35-5.28h.13c.79,1.76,1.56,3.53,2.35,5.28Zm14.41,3.53a.32.32,0,0,0,.3.31h.65a.31.31,0,0,0,.3-.31V149.72a.31.31,0,0,0-.3-.31h-.65a.32.32,0,0,0-.3.31Zm5,0a.32.32,0,0,0,.3.31h.57a.3.3,0,0,0,.3-.3h0v-8.75h0l7.3,9.08a.29.29,0,0,0,.26.14h.12a.31.31,0,0,0,.31-.3V149.72a.33.33,0,0,0-.31-.31h-.56a.31.31,0,0,0-.31.31h0v8.58h0L86,149.38a.28.28,0,0,0-.26-.13h-.24a.3.3,0,0,0-.31.29h0Zm14.86,0a.32.32,0,0,0,.3.31H101a.32.32,0,0,0,.3-.31V150.5h2.8a.31.31,0,0,0,.31-.31h0v-.47a.29.29,0,0,0-.3-.3H97.27a.29.29,0,0,0-.3.3h0v.47a.3.3,0,0,0,.3.31h2.8Zm6.91,0a.3.3,0,0,0,.3.31h6.35a.31.31,0,0,0,.3-.3h0v-.47a.3.3,0,0,0-.3-.31h-5.41v-4.1h4.62a.3.3,0,0,0,.3-.31h0v-.47a.3.3,0,0,0-.3-.3h-4.62v-3.93h5.41a.3.3,0,0,0,.31-.3h0v-.46a.31.31,0,0,0-.31-.31h-6.34a.31.31,0,0,0-.31.3h0Zm9.88,0a.31.31,0,0,0,.31.31h5.57a.32.32,0,0,0,.31-.3h0v-.47a.31.31,0,0,0-.31-.31h-4.63v-9.88a.33.33,0,0,0-.31-.31h-.63a.3.3,0,0,0-.3.3h0Zm8.57,0a.31.31,0,0,0,.31.3h.65a.32.32,0,0,0,.3-.3V149.72a.33.33,0,0,0-.31-.31h-.64a.32.32,0,0,0-.3.31Zm4.25-5.31a5.78,5.78,0,0,0,5.77,5.78h.05a7.93,7.93,0,0,0,4-1.07.34.34,0,0,0,.13-.25v-3.69a.3.3,0,0,0-.29-.31h-2.78a.29.29,0,0,0-.31.29v.61a.29.29,0,0,0,.3.29h1.86V159a6.1,6.1,0,0,1-2.9.68A4.59,4.59,0,0,1,131,155a4.54,4.54,0,0,1,4.46-4.62h0a4.89,4.89,0,0,1,3.06,1.25c.18.16.27.18.42,0l.45-.45a.31.31,0,0,0,0-.44h0a5.64,5.64,0,0,0-3.9-1.5,5.8,5.8,0,0,0-5.82,5.78v0Zm13.13,5.31a.31.31,0,0,0,.31.31h6.35a.31.31,0,0,0,.31-.3h0v-.47a.31.31,0,0,0-.31-.31h-5.41v-4.1h4.62a.31.31,0,0,0,.31-.31h0v-.47a.32.32,0,0,0-.31-.3h-4.62v-3.93h5.41a.3.3,0,0,0,.31-.3h0v-.46a.3.3,0,0,0-.3-.31h-6.35a.3.3,0,0,0-.31.3h0Zm9.89,0a.33.33,0,0,0,.31.31h.56a.31.31,0,0,0,.31-.3h0v-8.75h0l7.3,9.08a.28.28,0,0,0,.26.13h.13a.29.29,0,0,0,.3-.29V149.72a.31.31,0,0,0-.3-.31H161a.31.31,0,0,0-.3.31h0v8.58h0l-7.16-8.92a.26.26,0,0,0-.25-.13H153a.31.31,0,0,0-.31.29Zm14.86,0a.33.33,0,0,0,.31.31h.61a.33.33,0,0,0,.31-.31V150.5h2.8a.3.3,0,0,0,.3-.31h0v-.47a.29.29,0,0,0-.3-.3h-6.83a.3.3,0,0,0-.31.3h0v.47a.31.31,0,0,0,.31.31h2.8Zm6.91,0a.3.3,0,0,0,.3.31h6.35a.31.31,0,0,0,.31-.3h0v-.47a.31.31,0,0,0-.31-.31h-5.41v-4.1h4.62a.31.31,0,0,0,.31-.31h0v-.47a.32.32,0,0,0-.31-.3h-4.62v-3.93h5.41a.3.3,0,0,0,.31-.3h0v-.46a.31.31,0,0,0-.31-.31h-6.34a.31.31,0,0,0-.31.3h0Z"/><path id="Path_1273" data-name="Path 1273" class="cls-1" d="M317.89,168h0c-.29-1.44-.67-2.76-1-4-.28-1-.55-1.89-.78-2.87l-.11-.48c-.24-.94-.48-1.92-.66-2.9L315,156l-.27-1.71a42.51,42.51,0,0,1-.5-6.85,25.6,25.6,0,0,1,.32-3.38,7.78,7.78,0,0,1,.17-.81l0-.07a7.16,7.16,0,0,1,.19-.73,6.49,6.49,0,0,1,.58-1.39l0-.1a.81.81,0,0,0,.11-.33.79.79,0,0,0-.73-.85,48.91,48.91,0,0,0-8.81.19,49.54,49.54,0,0,0-8.62,1.67A37,37,0,0,0,282,150.1a30.57,30.57,0,0,0-9,15.58,38.18,38.18,0,0,0,.66,18.09,55,55,0,0,0,2.95,8.49c.25.59.51,1.16.76,1.72.34.76.68,1.51,1,2.26.6,1.43,1.11,2.73,1.56,4a45.25,45.25,0,0,1,2.21,8.17c.13.81.23,1.65.29,2.48a145.69,145.69,0,0,1-22.63,10.78,8.72,8.72,0,0,0-.24-1,13.58,13.58,0,0,0-.64-1.71,23.61,23.61,0,0,0-1.74-3.1,41.44,41.44,0,0,0-4.44-5.45c-1.62-1.73-3.39-3.33-5.06-4.81-.92-.81-1.91-1.64-3.12-2.61a67.61,67.61,0,0,1,4-8.81c1.28-2.35,2.75-4.78,4.37-7.23,1.29-2,2.63-3.82,4.05-5.76l.87-1.2.27-.4.14-.2a46.3,46.3,0,0,0,5.69-9.92,30.68,30.68,0,0,0,1.77-6.85,27.23,27.23,0,0,0-.57-9.52,26.65,26.65,0,0,0-1.51-4.52,28,28,0,0,0-2.25-4.18,34,34,0,0,0-6.18-7.09,44.06,44.06,0,0,0-7.65-5.41.56.56,0,0,0-.68.87h0a64.51,64.51,0,0,1,5,6.82,62.26,62.26,0,0,1,4.14,7.39,41.28,41.28,0,0,1,4.26,16.1,26.08,26.08,0,0,1-1,8.1,25.79,25.79,0,0,1-1,2.71,4.05,4.05,0,0,1-3.48.69,5.37,5.37,0,0,1-1.71-.85,9.47,9.47,0,0,1-1.5-1.4,26.83,26.83,0,0,1-2.58-3.6,61.82,61.82,0,0,1-4.09-8.13,105.59,105.59,0,0,1-5.67-17.43,72.47,72.47,0,0,1-1.54-9,35.21,35.21,0,0,1,.07-9,14.86,14.86,0,0,1,1.28-4.16,7.36,7.36,0,0,1,2.68-3.09,10,10,0,0,1,1.95-.86c.77-.29,1.47-.55,2.17-.83,1.29-.5,2.65-1.1,4.28-1.87a35.27,35.27,0,0,0,7.91-5,15.51,15.51,0,0,0,3.12-3.59,9.45,9.45,0,0,0,1-2.2,5.35,5.35,0,0,0,.19-2.45.3.3,0,0,0-.32-.24l-.15,0-.12.21v.09a4.69,4.69,0,0,1-.28,2.13,8.6,8.6,0,0,1-1,2,12,12,0,0,1-.82,1.06,18.12,18.12,0,0,1-1.82,1.69,14,14,0,0,1-5.43,2.8,4.89,4.89,0,0,1-2.81-.11,3.55,3.55,0,0,1-1.9-1.87,9.1,9.1,0,0,1-.39-1l-.14-.41a12.74,12.74,0,0,0-.71-1.55,9.28,9.28,0,0,0-1-1.45,7.73,7.73,0,0,0-1.06-1.08l-1.16-3.58a.83.83,0,0,0-.43-.49,4.29,4.29,0,0,1-2.1-1.55.89.89,0,0,1,0-.85,4,4,0,0,1,.22-.34l.18-.28a8,8,0,0,0,.43-.75,11.23,11.23,0,0,0,.64-1.57l.1-.36a6.92,6.92,0,0,0,.06-3.2l0-.07a19.36,19.36,0,0,1-2.45-3.75,12,12,0,0,1-.65-4.33,21.49,21.49,0,0,1,1.28-6.44h0a14.33,14.33,0,0,0,1,2.34,13.29,13.29,0,0,0,3.19,3.92,13.83,13.83,0,0,0,4.36,2.46,19.75,19.75,0,0,0,4.81,1l.22,0,0-.21c0-.21-.14-.26-.32-.3a18.74,18.74,0,0,1-4.37-1.47l-.37-.2a16.37,16.37,0,0,1-3.52-2.29,12.76,12.76,0,0,1-2.75-3.65,13.31,13.31,0,0,1-1.36-4.34.77.77,0,0,0-.45-.62.72.72,0,0,0-.59,0,.76.76,0,0,0-.44.4,31,31,0,0,0-1.66,4.52,19.29,19.29,0,0,0-.68,4.84,11.63,11.63,0,0,0,.91,4.87A12.83,12.83,0,0,0,240.44,90a3.4,3.4,0,0,1,.85,2.25,3.64,3.64,0,0,1-.21,1.35,9.56,9.56,0,0,1-.64,1.33c-.12.21-.25.42-.39.62l-.17.22c-.11.15-.22.3-.32.46a2.29,2.29,0,0,0-.05,2.2,4,4,0,0,0,1.25,1.46,7.31,7.31,0,0,0,1.16.73l1.14,3.52a.73.73,0,0,0,.28.39l.06.05a4.69,4.69,0,0,1,1,.9,7.63,7.63,0,0,1,.87,1.18,9.8,9.8,0,0,1,.68,1.33c.06.13.11.27.17.41a9.07,9.07,0,0,0,.48,1.11,4.77,4.77,0,0,0,2.66,2.39,5.38,5.38,0,0,0,2.64.19c-.71.35-1.45.71-2.26,1.07-1.61.69-3,1.22-4.25,1.67-.73.27-1.49.52-2.16.73a11.18,11.18,0,0,0-2.29,1,9.26,9.26,0,0,0-3.43,3.7,16.53,16.53,0,0,0-1.57,4.66,37.16,37.16,0,0,0-.36,9.54A69.79,69.79,0,0,0,237,143.7a91.41,91.41,0,0,0,2.45,9.08q1.44,4.49,3.32,8.8a64.77,64.77,0,0,0,4.34,8.4,28,28,0,0,0,2.86,3.89,12,12,0,0,0,1.92,1.71,7.59,7.59,0,0,0,2.43,1.13,5.7,5.7,0,0,0,2.5.1c-.35.58-.72,1.13-1.09,1.64l-2.56,3.44c-.91,1.27-1.71,2.44-2.45,3.58a84.29,84.29,0,0,0-4.41,7.51,63.88,63.88,0,0,0-3.62,8.52l0,0-.34-.27c-3.46-2.63-7.22-5.2-11.5-7.85l-3-1.82c-1-.6-2-1.24-2.85-1.79a61,61,0,0,1-5.34-4,31,31,0,0,1-8.16-10.08,21.19,21.19,0,0,1-1.84-12.59,33.39,33.39,0,0,1,4.85-12.38,46.79,46.79,0,0,1,4-5.51,45.78,45.78,0,0,1,4.29-4.52,27.44,27.44,0,0,1,6.7,9.09,38,38,0,0,1,3.15,11.45,40.51,40.51,0,0,1-.38,11.89,46.92,46.92,0,0,1-1.39,5.85c-.17.62-.38,1.25-.58,1.85-.11.35-.23.69-.33,1l-1.07,2.87a.44.44,0,0,0,.21.54.47.47,0,0,0,.33,0,.51.51,0,0,0,.26-.22l0-.06c.45-.88.91-1.79,1.34-2.72l.42-1c.26-.6.53-1.22.77-1.85a46.93,46.93,0,0,0,1.77-6,36.7,36.7,0,0,0,.72-12.49,32,32,0,0,0-4-11.87,45.4,45.4,0,0,0-3.4-5.19,32.21,32.21,0,0,0-4.18-4.63.64.64,0,0,0-.84,0,58.07,58.07,0,0,0-9.46,10.35,35.39,35.39,0,0,0-6,13,24.51,24.51,0,0,0-.45,7.35,23.28,23.28,0,0,0,1.92,7.19,31.7,31.7,0,0,0,9,11.33,48.55,48.55,0,0,0,5.81,4.14c1.79,1.11,3.66,2.09,5.46,3l.64.34c4.36,2.33,8.21,4.61,11.77,7,.22.14.42.29.64.44l.29.19a45.46,45.46,0,0,0-1.34,6,31.8,31.8,0,0,0,1.91,17.33,34.82,34.82,0,0,0,10.64,13.62,50.67,50.67,0,0,0,15.14,8.24.35.35,0,0,0,.14,0h.08a.68.68,0,0,0,.67-.63,27.39,27.39,0,0,1,2.16-8.2,37.56,37.56,0,0,1,4.43-7.28c.52-.7,1-1.39,1.58-2.08,1.22-1.6,2.49-3.25,3.63-5a23.63,23.63,0,0,0,4.06-13.75l.13-.07a116.94,116.94,0,0,0,12.09-7.43,68.69,68.69,0,0,0,10.91-9.3,40.19,40.19,0,0,0,8.1-12.19,27.14,27.14,0,0,0,1.86-7.29A24.35,24.35,0,0,0,317.89,168ZM259,223.07a.63.63,0,0,0,.47,0c2.24-.77,4.39-1.62,6.59-2.5s4.37-1.79,6.49-2.73c3.64-1.61,6.9-3.16,10-4.74a20.78,20.78,0,0,1-.32,3.53h0a22.4,22.4,0,0,1-3,7.72c-1,1.69-2.2,3.37-3.36,5-.51.71-1,1.43-1.52,2.16a39.2,39.2,0,0,0-4.38,7.75,28.64,28.64,0,0,0-2,7.82,47.76,47.76,0,0,1-14-7.58,35.89,35.89,0,0,1-5.93-5.95A28.52,28.52,0,0,1,244,226.3a30.09,30.09,0,0,1-1.24-16.46,41.18,41.18,0,0,1,1.28-5,64.1,64.1,0,0,1,7.85,6.49,34.91,34.91,0,0,1,4.38,5.18,18.69,18.69,0,0,1,1.65,2.92,11.23,11.23,0,0,1,.57,1.56,5.63,5.63,0,0,1,.25,1.53.64.64,0,0,0,0,.2A.61.61,0,0,0,259,223.07Zm54.22-81.2a9.24,9.24,0,0,0-.31.89c-.09.3-.17.6-.24.91a26,26,0,0,0-.56,3.64,42.82,42.82,0,0,0,.08,7.25l.18,1.8.24,1.78c.13,1,.32,2.08.51,3.08l.08.47c.2,1.14.46,2.3.72,3.43s.53,2.34.71,3.42a24.35,24.35,0,0,1,.11,6.55,26.81,26.81,0,0,1-1.68,6.35,39.24,39.24,0,0,1-7.27,11.27A91.38,91.38,0,0,1,285,209.36c0-.49-.09-.94-.14-1.36a48.81,48.81,0,0,0-2.06-8.77c-.41-1.28-.9-2.61-1.53-4.19-.31-.8-.65-1.59-1-2.37-.24-.56-.48-1.13-.7-1.68a58.58,58.58,0,0,1-2.68-8.06,38.39,38.39,0,0,1-.7-16.59,29.7,29.7,0,0,1,21.57-23.55,43.84,43.84,0,0,1,12-1.67c1.24,0,2.47,0,3.69.16a4.07,4.07,0,0,0-.24.59ZM262.65,163a41.84,41.84,0,0,0-5.07-16.74h0a71.21,71.21,0,0,0-7.72-11.74,34.49,34.49,0,0,1,4.63,3.64,33.15,33.15,0,0,1,5.79,7,25.35,25.35,0,0,1,2.05,4,24.39,24.39,0,0,1,1.33,4.31,26.2,26.2,0,0,1,.33,9,21.57,21.57,0,0,1-1.46,5.51A29.1,29.1,0,0,0,262.65,163Z"/></g></g></svg>