<svg width="157" height="52" viewBox="0 0 157 52" fill="none" xmlns="http://www.w3.org/2000/svg">
<path d="M1.3629 46.5731C1.37733 46.5107 1.43984 46.4675 1.50235 46.4675H1.62738C1.68027 46.4675 1.74278 46.5059 1.75721 46.5539L3.28155 50.7861H3.32002L4.82032 46.5539C4.83474 46.5059 4.89726 46.4675 4.95015 46.4675H5.07518C5.13769 46.4675 5.2002 46.5155 5.21463 46.5731L6.20521 51.7362C6.22925 51.8417 6.18116 51.9185 6.06576 51.9185H5.758C5.69549 51.9185 5.63298 51.8657 5.61855 51.8129L4.93572 47.8591H4.90687L3.49313 51.9137C3.4787 51.9617 3.40657 52.0001 3.3633 52.0001H3.22385C3.17576 52.0001 3.10844 51.9617 3.09401 51.9137L1.66104 47.8591H1.63218L0.963782 51.8129C0.954165 51.8657 0.886844 51.9185 0.824331 51.9185H0.516578C0.40117 51.9185 0.353084 51.8417 0.377127 51.7362L1.37252 46.5731H1.3629Z" fill="black"/>
<path d="M8.99219 46.6881C8.99219 46.6114 9.0547 46.5442 9.13645 46.5442H12.1707C12.2573 46.5442 12.315 46.6114 12.315 46.6881V46.9089C12.315 46.9856 12.2524 47.0528 12.1707 47.0528H9.58365V48.929H11.7908C11.8678 48.929 11.9351 48.9962 11.9351 49.0729V49.2937C11.9351 49.38 11.8678 49.4376 11.7908 49.4376H9.58365V51.3954H12.1707C12.2573 51.3954 12.315 51.4625 12.315 51.5393V51.76C12.315 51.8368 12.2524 51.904 12.1707 51.904H9.13645C9.04989 51.904 8.99219 51.8368 8.99219 51.76V46.6737V46.6881Z" fill="black"/>
<path d="M15.082 46.6881C15.082 46.6114 15.1445 46.5442 15.2215 46.5442H16.943C18.4288 46.5442 19.6454 47.7486 19.6454 49.2265C19.6454 50.7044 18.4288 51.9232 16.943 51.9232H15.2215C15.1445 51.9232 15.082 51.856 15.082 51.7792V46.6929V46.6881ZM16.8757 51.3906C18.1355 51.3906 19.0203 50.4933 19.0203 49.2265C19.0203 47.9597 18.1355 47.0672 16.8757 47.0672H15.6687V51.3906H16.8757Z" fill="black"/>
<path d="M22.4453 46.6881C22.4453 46.6114 22.5126 46.5442 22.5896 46.5442H22.8973C22.9743 46.5442 23.0416 46.6114 23.0416 46.6881V51.7744C23.0416 51.8512 22.9743 51.9184 22.8973 51.9184H22.5896C22.5126 51.9184 22.4453 51.8512 22.4453 51.7744V46.6881Z" fill="black"/>
<path d="M28.6153 46.4677C29.3943 46.4677 29.9569 46.7364 30.4763 47.1826C30.5388 47.245 30.5436 47.3362 30.4859 47.3986L30.2791 47.6049C30.2166 47.6817 30.1541 47.6721 30.0772 47.5953C29.678 47.2498 29.1683 47.0195 28.6057 47.0195C27.3891 47.0195 26.4563 48.0416 26.4563 49.2316C26.4563 50.4216 27.3891 51.434 28.6057 51.434C29.2741 51.434 29.6684 51.2037 30.0772 50.8582C30.1541 50.7958 30.2166 50.8054 30.2791 50.8678L30.457 51.0454C30.5196 51.0933 30.5051 51.1989 30.4474 51.2517C29.9377 51.7123 29.303 51.9954 28.6153 51.9954C27.0766 51.9954 25.8359 50.7766 25.8359 49.2364C25.8359 47.6961 27.0766 46.4629 28.6153 46.4629V46.4677Z" fill="black"/>
<path d="M33.2656 46.6881C33.2656 46.6114 33.3329 46.5442 33.4099 46.5442H33.7176C33.7946 46.5442 33.8619 46.6114 33.8619 46.6881V51.7744C33.8619 51.8512 33.7946 51.9184 33.7176 51.9184H33.4099C33.3329 51.9184 33.2656 51.8512 33.2656 51.7744V46.6881Z" fill="black"/>
<path d="M36.9931 46.6067C36.9931 46.5299 37.0604 46.4675 37.1374 46.4675H37.2528C37.3057 46.4675 37.3441 46.4819 37.3778 46.5299L40.8015 50.7861H40.816V46.6931C40.816 46.6163 40.8785 46.5491 40.9602 46.5491H41.2295C41.3064 46.5491 41.3738 46.6163 41.3738 46.6931V51.8609C41.3738 51.9377 41.3064 52.0001 41.2295 52.0001H41.167C41.1141 52.0001 41.0756 51.9857 41.042 51.9377L37.5557 47.5999H37.5461V51.7794C37.5461 51.8561 37.4836 51.9233 37.4018 51.9233H37.1325C37.0556 51.9233 36.9883 51.8561 36.9883 51.7794V46.6115L36.9931 46.6067Z" fill="black"/>
<path d="M43.8279 51.7218L46.1697 46.5539C46.1938 46.5059 46.2322 46.4675 46.2996 46.4675H46.3765C46.4438 46.4675 46.4823 46.5059 46.5063 46.5539L48.8289 51.7218C48.877 51.8225 48.8145 51.9233 48.6991 51.9233H48.3913C48.324 51.9233 48.2759 51.8753 48.2615 51.8369L47.6941 50.5702H44.9628L44.4002 51.8369C44.3857 51.8753 44.3376 51.9233 44.2703 51.9233H43.9626C43.8472 51.9233 43.7846 51.8225 43.8327 51.7218H43.8279ZM47.4825 50.0951C47.1074 49.2554 46.7372 48.4109 46.3573 47.576H46.2948L45.1695 50.0951H47.4777H47.4825Z" fill="black"/>
<path d="M54.7793 46.6881C54.7793 46.6114 54.8418 46.5442 54.9236 46.5442H57.9578C58.0444 46.5442 58.1021 46.6114 58.1021 46.6881V46.9089C58.1021 46.9856 58.0396 47.0528 57.9578 47.0528H55.3708V48.929H57.5779C57.6549 48.929 57.7222 48.9962 57.7222 49.0729V49.2937C57.7222 49.38 57.6549 49.4376 57.5779 49.4376H55.3708V51.3954H57.9578C58.0444 51.3954 58.1021 51.4625 58.1021 51.5393V51.76C58.1021 51.8368 58.0396 51.904 57.9578 51.904H54.9236C54.837 51.904 54.7793 51.8368 54.7793 51.76V46.6737V46.6881Z" fill="black"/>
<path d="M60.5288 51.1125L60.6442 50.9686C60.7211 50.8678 60.7836 50.8294 60.8894 50.9206C60.9423 50.9686 61.529 51.482 62.2118 51.482C62.8369 51.482 63.2408 51.0885 63.2408 50.6039C63.2408 50.0761 62.7792 49.769 61.8944 49.3899C61.0481 49.03 60.5384 48.7085 60.5384 47.8304C60.5384 47.3074 60.9519 46.4629 62.1781 46.4629C62.9331 46.4629 63.4957 46.8564 63.4957 46.8564C63.5438 46.8804 63.6255 46.9715 63.5438 47.1155L63.4668 47.245C63.4043 47.3506 63.3226 47.3506 63.1976 47.2834C62.8754 47.0915 62.6061 46.9763 62.1733 46.9763C61.3558 46.9763 61.1106 47.4993 61.1106 47.8208C61.1106 48.3679 61.5049 48.603 62.1493 48.8717C63.188 49.2939 63.8563 49.6874 63.8563 50.5751C63.8563 51.3764 63.0966 51.9906 62.1926 51.9906C61.2885 51.9906 60.6682 51.4628 60.5672 51.3668C60.5047 51.3141 60.4134 51.2421 60.5191 51.1077L60.5288 51.1125Z" fill="black"/>
<path d="M67.521 47.0575H66.1794C66.0929 47.0575 66.0352 46.9903 66.0352 46.9135V46.6928C66.0352 46.616 66.0977 46.5488 66.1794 46.5488H69.4445C69.531 46.5488 69.5887 46.616 69.5887 46.6928V46.9135C69.5887 46.9903 69.5262 47.0575 69.4445 47.0575H68.1029V51.7743C68.1029 51.851 68.0356 51.9182 67.9586 51.9182H67.6653C67.5883 51.9182 67.521 51.851 67.521 51.7743V47.0575Z" fill="black"/>
<path d="M72.1875 46.6887C72.1875 46.612 72.25 46.5448 72.3318 46.5448H75.366C75.4526 46.5448 75.5103 46.612 75.5103 46.6887V46.9095C75.5103 46.9862 75.4478 47.0534 75.366 47.0534H72.779V48.9296H74.9861C75.0631 48.9296 75.1304 48.9968 75.1304 49.0735V49.2943C75.1304 49.3806 75.0631 49.4382 74.9861 49.4382H72.779V51.396H75.366C75.4526 51.396 75.5103 51.4631 75.5103 51.5399V51.7606C75.5103 51.8374 75.4478 51.9046 75.366 51.9046H72.3318C72.2452 51.9046 72.1875 51.8374 72.1875 51.7606V46.6743V46.6887ZM73.1492 45.7387C73.1204 45.6763 73.1492 45.6139 73.1973 45.5947L74.3514 44.9517C74.3995 44.9229 74.5149 44.9037 74.5534 44.9757L74.6928 45.254C74.7217 45.3164 74.7072 45.3932 74.6447 45.4172L73.4041 45.9306C73.2983 45.9786 73.2598 45.9786 73.2262 45.9162L73.1492 45.7482V45.7387Z" fill="black"/>
<path d="M79.2222 47.0575H77.8806C77.794 47.0575 77.7363 46.9903 77.7363 46.9135V46.6928C77.7363 46.616 77.7988 46.5488 77.8806 46.5488H81.1457C81.2322 46.5488 81.2899 46.616 81.2899 46.6928V46.9135C81.2899 46.9903 81.2274 47.0575 81.1457 47.0575H79.804V51.7743C79.804 51.851 79.7367 51.9182 79.6598 51.9182H79.3665C79.2895 51.9182 79.2222 51.851 79.2222 51.7743V47.0575Z" fill="black"/>
<path d="M83.877 46.6881C83.877 46.6114 83.9443 46.5442 84.0212 46.5442H84.329C84.4059 46.5442 84.4732 46.6114 84.4732 46.6881V51.7744C84.4732 51.8512 84.4059 51.9184 84.329 51.9184H84.0212C83.9443 51.9184 83.877 51.8512 83.877 51.7744V46.6881Z" fill="black"/>
<path d="M90.0489 46.4677C90.8279 46.4677 91.3905 46.7364 91.9099 47.1826C91.9724 47.245 91.9772 47.3362 91.9195 47.3986L91.7127 47.6049C91.6502 47.6817 91.5877 47.6721 91.5108 47.5953C91.1116 47.2498 90.6019 47.0195 90.0393 47.0195C88.8227 47.0195 87.8899 48.0416 87.8899 49.2316C87.8899 50.4216 88.8227 51.434 90.0393 51.434C90.7077 51.434 91.102 51.2037 91.5108 50.8582C91.5877 50.7958 91.6502 50.8054 91.7127 50.8678L91.8906 51.0454C91.9532 51.0933 91.9387 51.1989 91.881 51.2517C91.3713 51.7123 90.7366 51.9954 90.0489 51.9954C88.5102 51.9954 87.2695 50.7766 87.2695 49.2364C87.2695 47.6961 88.5102 46.4629 90.0489 46.4629V46.4677Z" fill="black"/>
<path d="M94.0115 51.7218L96.3533 46.5539C96.3774 46.5059 96.4158 46.4675 96.4832 46.4675H96.5601C96.6274 46.4675 96.6659 46.5059 96.6899 46.5539L99.0125 51.7218C99.0606 51.8225 98.9981 51.9233 98.8827 51.9233H98.5749C98.5076 51.9233 98.4595 51.8753 98.4451 51.8369L97.8777 50.5702H95.1464L94.5838 51.8369C94.5693 51.8753 94.5212 51.9233 94.4539 51.9233H94.1462C94.0308 51.9233 93.9682 51.8225 94.0163 51.7218H94.0115ZM97.6661 50.0951C97.291 49.2554 96.9208 48.4109 96.5409 47.576H96.4784L95.3531 50.0951H97.6613H97.6661Z" fill="black"/>
<path d="M63.3817 32.6435H53.75C50.6965 32.6435 48.2104 30.1627 48.2104 27.1205V0H44.123V27.1205C44.123 32.4179 48.4412 36.7269 53.75 36.7269H63.3817V32.6483V32.6435Z" fill="black"/>
<path d="M86.7293 32.6435H77.0976C74.0441 32.6435 71.5581 30.1627 71.5581 27.1205V0H67.4707V27.1205C67.4707 32.4179 71.7889 36.7269 77.0976 36.7269H86.7293V32.6483V32.6435Z" fill="black"/>
<path d="M94.8505 21.0361V24.5582V36.7269H98.8753L98.8657 24.5582V21.0361C98.8753 18.8145 99.5389 16.6744 100.78 14.851L110.902 0H106.026L97.4856 12.519C97.2596 12.8501 97.0529 13.186 96.8557 13.5315C96.6585 13.186 96.4518 12.8501 96.2258 12.519L87.6904 0H82.8145L92.9415 14.851C94.1869 16.6744 94.8457 18.8145 94.8505 21.0361Z" fill="black"/>
<path d="M31.6245 0H27.5371V36.7269H31.6245V0Z" fill="black"/>
<path d="M19.2586 32.6435H9.62691C6.57342 32.6435 4.08735 30.1627 4.08735 27.1205V0H0V27.1205C0 32.4179 4.31817 36.7269 9.62691 36.7269H19.2586V32.6483V32.6435Z" fill="black"/>
<path d="M115.237 26.1708C115.252 26.1133 115.31 26.0701 115.367 26.0701H115.526C115.598 26.0701 115.641 26.0989 115.67 26.1708L118.642 35.0095H118.671L121.657 26.1708C121.686 26.0989 121.729 26.0701 121.801 26.0701H121.96C122.018 26.0701 122.075 26.1133 122.09 26.1708L124.138 36.1035C124.167 36.2475 124.109 36.2906 123.98 36.2906H123.633C123.547 36.2906 123.475 36.2187 123.46 36.1323L121.83 27.6967H121.801L118.887 36.3194C118.858 36.4058 118.772 36.4346 118.685 36.4346H118.628C118.555 36.4346 118.469 36.4202 118.44 36.3194L115.526 27.6967H115.497L113.867 36.1323C113.853 36.2187 113.78 36.2906 113.694 36.2906H113.348C113.218 36.2906 113.16 36.2475 113.189 36.1035L115.237 26.1708Z" fill="black"/>
<path d="M133.004 26.4006C133.004 26.2999 133.09 26.2135 133.191 26.2135H138.976C139.077 26.2135 139.164 26.2999 139.164 26.4006V26.6454C139.164 26.7461 139.077 26.8325 138.976 26.8325H133.696V30.8056H138.269C138.37 30.8056 138.457 30.8919 138.457 30.9927V31.2374C138.457 31.3382 138.37 31.4246 138.269 31.4246H133.696V35.6855H138.976C139.077 35.6855 139.164 35.7719 139.164 35.8727V36.103C139.164 36.2038 139.077 36.2901 138.976 36.2901H133.191C133.09 36.2901 133.004 36.2038 133.004 36.103V26.4006Z" fill="black"/>
<path d="M148.303 26.4006C148.303 26.2999 148.389 26.2135 148.476 26.2135H151.534C154.333 26.2135 156.612 28.4735 156.612 31.2374C156.612 34.0013 154.429 36.2901 151.63 36.2901H148.572C148.485 36.2901 148.399 36.2038 148.399 36.103L148.303 26.4006ZM151.515 35.6711C154.083 35.6711 155.891 33.7566 155.891 31.2374C155.891 28.7183 154.001 26.8325 151.419 26.8325H148.981L149.077 35.6711H151.515Z" fill="black"/>
<path d="M106.627 26.2125H106.146V51.9175H106.627V26.2125Z" fill="black"/>
</svg>
