<svg width="193" height="64" viewBox="0 0 193 64" fill="none" xmlns="http://www.w3.org/2000/svg">
<path d="M1.67771 57.3208C1.69547 57.2441 1.77241 57.1909 1.84935 57.1909H2.00322C2.06832 57.1909 2.14526 57.2382 2.16302 57.2972L4.03913 62.5061H4.08647L5.93299 57.2972C5.95075 57.2382 6.02769 57.1909 6.09279 57.1909H6.24666C6.3236 57.1909 6.40054 57.25 6.41829 57.3208L7.63747 63.6754C7.66706 63.8053 7.60788 63.8998 7.46584 63.8998H7.08707C7.01013 63.8998 6.93319 63.8348 6.91543 63.7699L6.07503 58.9036H6.03952L4.29953 63.8939C4.28178 63.953 4.193 64.0002 4.13974 64.0002H3.96811C3.90892 64.0002 3.82607 63.953 3.80831 63.8939L2.04465 58.9036H2.00914L1.18649 63.7699C1.17466 63.8348 1.0918 63.8998 1.01486 63.8998H0.636088C0.494048 63.8998 0.434865 63.8053 0.464457 63.6754L1.68955 57.3208H1.67771Z" fill="white"/>
<path d="M11.0684 57.4623C11.0684 57.3678 11.1453 57.2852 11.2459 57.2852H14.9804C15.0869 57.2852 15.1579 57.3678 15.1579 57.4623V57.734C15.1579 57.8285 15.081 57.9112 14.9804 57.9112H11.7963V60.2203H14.5128C14.6075 60.2203 14.6904 60.303 14.6904 60.3975V60.6691C14.6904 60.7754 14.6075 60.8463 14.5128 60.8463H11.7963V63.2558H14.9804C15.0869 63.2558 15.1579 63.3385 15.1579 63.433V63.7047C15.1579 63.7992 15.081 63.8818 14.9804 63.8818H11.2459C11.1394 63.8818 11.0684 63.7992 11.0684 63.7047V57.4446V57.4623Z" fill="white"/>
<path d="M18.5625 57.4623C18.5625 57.3678 18.6394 57.2852 18.7341 57.2852H20.8529C22.6817 57.2852 24.179 58.7675 24.179 60.5864C24.179 62.4054 22.6817 63.9055 20.8529 63.9055H18.7341C18.6394 63.9055 18.5625 63.8228 18.5625 63.7283V57.4682V57.4623ZM20.77 63.2499C22.3206 63.2499 23.4096 62.1456 23.4096 60.5864C23.4096 59.0273 22.3206 57.9289 20.77 57.9289H19.2845V63.2499H20.77Z" fill="white"/>
<path d="M27.625 57.4623C27.625 57.3678 27.7079 57.2852 27.8026 57.2852H28.1813C28.276 57.2852 28.3589 57.3678 28.3589 57.4623V63.7224C28.3589 63.8169 28.276 63.8995 28.1813 63.8995H27.8026C27.7079 63.8995 27.625 63.8169 27.625 63.7224V57.4623Z" fill="white"/>
<path d="M35.2196 57.191C36.1784 57.191 36.8708 57.5217 37.51 58.0709C37.587 58.1477 37.5929 58.2599 37.5219 58.3367L37.2674 58.5906C37.1904 58.6851 37.1135 58.6733 37.0188 58.5788C36.5276 58.1536 35.9002 57.8701 35.2078 57.8701C33.7104 57.8701 32.5623 59.128 32.5623 60.5926C32.5623 62.0573 33.7104 63.3034 35.2078 63.3034C36.0304 63.3034 36.5157 63.0199 37.0188 62.5947C37.1135 62.5179 37.1904 62.5297 37.2674 62.6065L37.4863 62.825C37.5633 62.8841 37.5455 63.014 37.4745 63.079C36.8472 63.6459 36.0659 63.9943 35.2196 63.9943C33.3258 63.9943 31.7988 62.4943 31.7988 60.5986C31.7988 58.7028 33.3258 57.1851 35.2196 57.1851V57.191Z" fill="white"/>
<path d="M40.9434 57.4623C40.9434 57.3678 41.0262 57.2852 41.1209 57.2852H41.4997C41.5944 57.2852 41.6772 57.3678 41.6772 57.4623V63.7224C41.6772 63.8169 41.5944 63.8995 41.4997 63.8995H41.1209C41.0262 63.8995 40.9434 63.8169 40.9434 63.7224V57.4623Z" fill="white"/>
<path d="M45.5294 57.3622C45.5294 57.2677 45.6122 57.1909 45.7069 57.1909H45.8489C45.914 57.1909 45.9614 57.2086 46.0028 57.2677L50.2167 62.5061H50.2344V57.4685C50.2344 57.374 50.3114 57.2913 50.412 57.2913H50.7434C50.8381 57.2913 50.921 57.374 50.921 57.4685V63.8289C50.921 63.9234 50.8381 64.0002 50.7434 64.0002H50.6665C50.6014 64.0002 50.554 63.9825 50.5126 63.9234L46.2218 58.5847H46.21V63.7285C46.21 63.823 46.133 63.9057 46.0324 63.9057H45.701C45.6063 63.9057 45.5234 63.823 45.5234 63.7285V57.3681L45.5294 57.3622Z" fill="white"/>
<path d="M53.9419 63.6577L56.8241 57.2972C56.8537 57.2382 56.9011 57.1909 56.9839 57.1909H57.0786C57.1615 57.1909 57.2088 57.2382 57.2384 57.2972L60.097 63.6577C60.1562 63.7817 60.0792 63.9057 59.9372 63.9057H59.5584C59.4756 63.9057 59.4164 63.8466 59.3986 63.7994L58.7002 62.2403H55.3386L54.6462 63.7994C54.6284 63.8466 54.5693 63.9057 54.4864 63.9057H54.1076C53.9656 63.9057 53.8886 63.7817 53.9478 63.6577H53.9419ZM58.4398 61.6556C57.9782 60.6221 57.5225 59.5827 57.055 58.5551H56.978L55.5931 61.6556H58.4339H58.4398Z" fill="white"/>
<path d="M67.4219 57.4623C67.4219 57.3678 67.4988 57.2852 67.5994 57.2852H71.3339C71.4404 57.2852 71.5114 57.3678 71.5114 57.4623V57.734C71.5114 57.8285 71.4345 57.9112 71.3339 57.9112H68.1498V60.2203H70.8663C70.961 60.2203 71.0439 60.303 71.0439 60.3975V60.6691C71.0439 60.7754 70.961 60.8463 70.8663 60.8463H68.1498V63.2558H71.3339C71.4404 63.2558 71.5114 63.3385 71.5114 63.433V63.7047C71.5114 63.7992 71.4345 63.8818 71.3339 63.8818H67.5994C67.4929 63.8818 67.4219 63.7992 67.4219 63.7047V57.4446V57.4623Z" fill="white"/>
<path d="M74.4953 62.9077L74.6373 62.7305C74.732 62.6065 74.809 62.5593 74.9392 62.6715C75.0043 62.7305 75.7263 63.3624 76.5667 63.3624C77.3361 63.3624 77.8332 62.8782 77.8332 62.2817C77.8332 61.6321 77.2651 61.2541 76.1761 60.7875C75.1345 60.3446 74.5071 59.9489 74.5071 58.8682C74.5071 58.2245 75.0161 57.1851 76.5253 57.1851C77.4545 57.1851 78.1469 57.6693 78.1469 57.6693C78.2061 57.6989 78.3067 57.8111 78.2061 57.9882L78.1114 58.1477C78.0344 58.2776 77.9338 58.2776 77.78 58.1949C77.3834 57.9587 77.052 57.817 76.5194 57.817C75.5132 57.817 75.2114 58.4607 75.2114 58.8564C75.2114 59.5296 75.6967 59.819 76.4898 60.1497C77.7681 60.6694 78.5908 61.1537 78.5908 62.2462C78.5908 63.2325 77.6557 63.9884 76.543 63.9884C75.4304 63.9884 74.6669 63.3388 74.5426 63.2207C74.4657 63.1557 74.3532 63.0671 74.4835 62.9018L74.4953 62.9077Z" fill="white"/>
<path d="M83.1022 57.917H81.451C81.3445 57.917 81.2734 57.8343 81.2734 57.7398V57.4682C81.2734 57.3737 81.3504 57.291 81.451 57.291H85.4695C85.5761 57.291 85.6471 57.3737 85.6471 57.4682V57.7398C85.6471 57.8343 85.5701 57.917 85.4695 57.917H83.8183V63.7223C83.8183 63.8168 83.7355 63.8995 83.6408 63.8995H83.2798C83.1851 63.8995 83.1022 63.8168 83.1022 63.7223V57.917Z" fill="white"/>
<path d="M88.8457 57.4631C88.8457 57.3686 88.9226 57.2859 89.0233 57.2859H92.7577C92.8642 57.2859 92.9353 57.3686 92.9353 57.4631V57.7348C92.9353 57.8292 92.8583 57.9119 92.7577 57.9119H89.5737V60.2211H92.2902C92.3849 60.2211 92.4677 60.3037 92.4677 60.3982V60.6699C92.4677 60.7762 92.3849 60.8471 92.2902 60.8471H89.5737V63.2566H92.7577C92.8642 63.2566 92.9353 63.3393 92.9353 63.4338V63.7054C92.9353 63.7999 92.8583 63.8826 92.7577 63.8826H89.0233C88.9167 63.8826 88.8457 63.7999 88.8457 63.7054V57.4454V57.4631ZM90.0294 56.2938C89.9939 56.217 90.0294 56.1402 90.0886 56.1166L91.509 55.3252C91.5681 55.2898 91.7102 55.2662 91.7575 55.3548L91.9292 55.6973C91.9647 55.7741 91.9469 55.8686 91.87 55.8981L90.343 56.53C90.2128 56.589 90.1655 56.589 90.1241 56.5123L90.0294 56.3056V56.2938Z" fill="white"/>
<path d="M97.5026 57.917H95.8514C95.7448 57.917 95.6738 57.8343 95.6738 57.7398V57.4682C95.6738 57.3737 95.7508 57.291 95.8514 57.291H99.8699C99.9765 57.291 100.047 57.3737 100.047 57.4682V57.7398C100.047 57.8343 99.9705 57.917 99.8699 57.917H98.2187V63.7223C98.2187 63.8168 98.1359 63.8995 98.0412 63.8995H97.6801C97.5854 63.8995 97.5026 63.8168 97.5026 63.7223V57.917Z" fill="white"/>
<path d="M103.232 57.4623C103.232 57.3678 103.315 57.2852 103.41 57.2852H103.789C103.883 57.2852 103.966 57.3678 103.966 57.4623V63.7224C103.966 63.8169 103.883 63.8995 103.789 63.8995H103.41C103.315 63.8995 103.232 63.8169 103.232 63.7224V57.4623Z" fill="white"/>
<path d="M110.831 57.191C111.79 57.191 112.482 57.5217 113.121 58.0709C113.198 58.1477 113.204 58.2599 113.133 58.3367L112.879 58.5906C112.802 58.6851 112.725 58.6733 112.63 58.5788C112.139 58.1536 111.512 57.8701 110.819 57.8701C109.322 57.8701 108.174 59.128 108.174 60.5926C108.174 62.0573 109.322 63.3034 110.819 63.3034C111.642 63.3034 112.127 63.0199 112.63 62.5947C112.725 62.5179 112.802 62.5297 112.879 62.6065L113.098 62.825C113.175 62.8841 113.157 63.014 113.086 63.079C112.458 63.6459 111.677 63.9943 110.831 63.9943C108.937 63.9943 107.41 62.4943 107.41 60.5986C107.41 58.7028 108.937 57.1851 110.831 57.1851V57.191Z" fill="white"/>
<path d="M115.708 63.6577L118.59 57.2972C118.619 57.2382 118.667 57.1909 118.75 57.1909H118.844C118.927 57.1909 118.974 57.2382 119.004 57.2972L121.863 63.6577C121.922 63.7817 121.845 63.9057 121.703 63.9057H121.324C121.241 63.9057 121.182 63.8466 121.164 63.7994L120.466 62.2403H117.104L116.412 63.7994C116.394 63.8466 116.335 63.9057 116.252 63.9057H115.873C115.731 63.9057 115.654 63.7817 115.713 63.6577H115.708ZM120.205 61.6556C119.744 60.6221 119.288 59.5827 118.821 58.5551H118.744L117.359 61.6556H120.2H120.205Z" fill="white"/>
<path d="M78.0095 40.1765H66.1551C62.397 40.1765 59.3372 37.1233 59.3372 33.379V0H54.3066V33.379C54.3066 39.8989 59.6213 45.2023 66.1551 45.2023H78.0095V40.1824V40.1765Z" fill="white"/>
<path d="M106.744 40.1765H94.8895C91.1314 40.1765 88.0716 37.1233 88.0716 33.379V0H83.041V33.379C83.041 39.8989 88.3557 45.2023 94.8895 45.2023H106.744V40.1824V40.1765Z" fill="white"/>
<path d="M116.739 25.8906V30.2254V45.2023H121.693L121.681 30.2254V25.8906C121.693 23.1563 122.51 20.5223 124.037 18.2782L136.495 0H130.494L119.983 15.408C119.704 15.8155 119.45 16.2289 119.207 16.6541C118.965 16.2289 118.71 15.8155 118.432 15.408L107.927 0H101.926L114.39 18.2782C115.923 20.5223 116.733 23.1563 116.739 25.8906Z" fill="white"/>
<path d="M38.9212 0H33.8906V45.2023H38.9212V0Z" fill="white"/>
<path d="M23.7029 40.1765H11.8485C8.09035 40.1765 5.03058 37.1233 5.03058 33.379V0H0V33.379C0 39.8989 5.31466 45.2023 11.8485 45.2023H23.7029V40.1824V40.1765Z" fill="white"/>
<path d="M141.829 32.21C141.847 32.1391 141.918 32.0859 141.989 32.0859H142.184C142.273 32.0859 142.326 32.1214 142.362 32.21L146.019 43.0883H146.055L149.73 32.21C149.765 32.1214 149.819 32.0859 149.908 32.0859H150.103C150.174 32.0859 150.245 32.1391 150.263 32.21L152.784 44.4348C152.819 44.6119 152.748 44.6651 152.589 44.6651H152.162C152.056 44.6651 151.967 44.5765 151.949 44.4702L149.943 34.088H149.908L146.321 44.7005C146.286 44.8068 146.179 44.8423 146.072 44.8423H146.001C145.913 44.8423 145.806 44.8245 145.771 44.7005L142.184 34.088H142.149L140.142 44.4702C140.125 44.5765 140.036 44.6651 139.929 44.6651H139.503C139.343 44.6651 139.272 44.6119 139.308 44.4348L141.829 32.21Z" fill="white"/>
<path d="M163.695 32.493C163.695 32.369 163.802 32.2627 163.926 32.2627H171.046C171.17 32.2627 171.277 32.369 171.277 32.493V32.7942C171.277 32.9182 171.17 33.0245 171.046 33.0245H164.548V37.9145H170.176C170.3 37.9145 170.407 38.0208 170.407 38.1448V38.446C170.407 38.57 170.3 38.6763 170.176 38.6763H164.548V43.9206H171.046C171.17 43.9206 171.277 44.0269 171.277 44.1509V44.4344C171.277 44.5584 171.17 44.6647 171.046 44.6647H163.926C163.802 44.6647 163.695 44.5584 163.695 44.4344V32.493Z" fill="white"/>
<path d="M182.525 32.493C182.525 32.369 182.632 32.2627 182.738 32.2627H186.503C189.947 32.2627 192.752 35.0443 192.752 38.446C192.752 41.8477 190.065 44.6647 186.621 44.6647H182.857C182.75 44.6647 182.644 44.5584 182.644 44.4344L182.525 32.493ZM186.479 43.9028C189.639 43.9028 191.865 41.5465 191.865 38.446C191.865 35.3455 189.539 33.0245 186.36 33.0245H183.36L183.478 43.9028H186.479Z" fill="white"/>
<path d="M131.234 32.2612H130.643V63.8981H131.234V32.2612Z" fill="white"/>
</svg>
