<svg width="18" height="18" viewBox="0 0 18 18" fill="none" xmlns="http://www.w3.org/2000/svg">
<path d="M1.70077 13.1347C0.957599 11.8563 0.568812 10.4046 0.568812 8.92178C0.572253 1.49726 9.58662 -2.32067 15.0331 2.94197L15.0228 2.96969C16.6123 4.53913 17.5034 6.68715 17.5 8.92871C17.4965 15.3381 10.5878 19.3535 4.98654 16.329L0.5 17.5L1.70077 13.1347ZM5.45102 14.9293C10.144 17.6905 16.0825 14.3126 16.0859 8.90446C16.0893 7.04053 15.3462 5.25629 14.025 3.95362C12.7072 2.6267 10.9147 1.88529 9.05332 1.89222C3.5174 1.89222 0.159381 7.96903 3.08045 12.6185L3.24904 12.8852L2.53683 15.4663L5.19297 14.7734L5.44758 14.9258L5.45102 14.9293ZM10.4192 12.8125C8.54756 12.1715 7.52226 11.7073 5.59896 9.19202C4.62184 7.81313 4.33283 6.51739 5.4751 5.25975C5.73659 4.98606 6.03592 4.98259 6.44535 5.01724C6.57609 5.01724 6.75156 4.96527 6.92015 5.37755C7.09562 5.79329 7.51882 6.83266 7.57387 6.94006C7.64268 7.05093 7.64956 7.19297 7.59107 7.31077C7.1954 8.05911 6.76189 8.11108 6.96832 8.46793C7.2883 9.01186 7.68397 9.50383 8.14501 9.93343C8.64733 10.3804 9.22191 10.7372 9.8481 10.9867C10.058 11.0837 10.1818 11.0698 10.3057 10.9347C10.4296 10.7996 10.8356 10.3215 10.9732 10.1101C11.1727 9.80871 11.3379 9.91264 12.8965 10.6887L12.9034 10.6367C13.1167 10.7337 13.2543 10.7857 13.3059 10.8827C13.3644 11.2222 13.3197 11.5756 13.1786 11.8909C13.0031 12.3898 12.1567 12.8367 11.7508 12.9025C11.5822 12.9268 11.4136 12.9407 11.2415 12.9407C10.9629 12.9407 10.6842 12.8991 10.4158 12.8125H10.4192Z" fill="white"/>
</svg>
